<?xml version="1.0" encoding="utf-8"?>
<!-- Generator: Adobe Illustrator 27.0.0, SVG Export Plug-In . SVG Version: 6.00 Build 0)  -->
<svg version="1.1" id="Camada_1" xmlns="http://www.w3.org/2000/svg" xmlns:xlink="http://www.w3.org/1999/xlink" x="0px" y="0px"
	 viewBox="0 0 179.67 108.67" style="enable-background:new 0 0 179.67 108.67;" xml:space="preserve">
<style type="text/css">
	.st0{clip-path:url(#SVGID_00000071548931647347486700000016949577710579172025_);}
	.st1{fill:#0C4069;}
	.st2{fill:none;stroke:#FFFFFF;stroke-miterlimit:10;}
</style>
<g>
	<defs>
		<rect id="SVGID_1_" x="10.54" y="11.15" width="161.79" height="89.06"/>
	</defs>
	<clipPath id="SVGID_00000103234252481271875220000008151694504067461522_">
		<use xlink:href="#SVGID_1_"  style="overflow:visible;"/>
	</clipPath>
	
		<g id="Grupo_3_00000067218264204955760920000007900788506661577394_" style="clip-path:url(#SVGID_00000103234252481271875220000008151694504067461522_);">
		<path id="Caminho_11_00000005265610337918961980000001808631479502507405_" class="st1" d="M15.92,58.52
			c0.5,0.63,0.92,1.22,1.39,1.74c1.96,1.94,4.44,3.26,7.14,3.81c3.47,0.82,7.03,1.17,10.59,1.05c4.38-0.09,8.76-0.47,13.09-1.14
			c9.68-1.5,19.27-3.53,28.72-6.09c4.96-1.31,9.99-2.3,15.08-2.96c4.06-0.5,8.13-0.96,12.2-1.39c2.85-0.29,5.71-0.47,8.57-0.7
			c0.12,0,0.23,0,0.52,0l-2.03,0.97c-7.4,3.61-14.27,8.21-20.43,13.67c-10.12,8.86-21.27,16.47-33.2,22.66
			c-6.4,3.41-13.14,6.13-20.12,8.12c-4.47,1.33-9.11,1.97-13.77,1.9c-4.24,0-8.38-1.29-11.85-3.72c-0.85-0.54-1.34-1.5-1.28-2.5
			c0.13-2.57,0.14-5.16,0.45-7.71c0.47-3.93,1.05-7.84,1.74-11.74c0.74-4.25,1.64-8.48,2.48-12.72c0.21-1.07,0.46-2.13,0.7-3.25"/>
		<path id="Caminho_12_00000018925287958021868770000017034822858979866808_" class="st1" d="M93.68,51.68
			c1.91-0.9,3.82-1.81,5.72-2.71c11.27-5.31,22.54-10.61,33.81-15.91c4.01-1.89,8.31-3.07,12.72-3.49
			c5.58-0.76,11.26,0.5,15.99,3.56c3.55,2.5,6.4,5.86,8.3,9.76c1.41,2.75,2.14,5.8,2.11,8.89c0.12,9.77-3.8,19.16-10.83,25.95
			c-3.12,3.05-6.62,5.67-10.42,7.8c-3.03,1.78-6.16,3.4-9.24,5.09c-0.1,0.05-0.21,0.09-0.48,0.2c0.57-0.73,1.05-1.31,1.5-1.91
			c2.96-3.65,5-7.95,5.97-12.55c1.3-5.32,0.63-10.94-1.89-15.8c-2.37-4.27-6.23-7.52-10.85-9.12c-2.78-1.01-5.69-1.64-8.65-1.87
			c-4.01-0.24-8.04-0.21-12.05,0.12c-2.02,0.1-4.03,0.21-6.05,0.37c-2.3,0.18-4.6,0.39-6.89,0.65c-2.84,0.32-5.68,0.71-8.52,1.08
			c-0.08,0-0.15,0-0.23,0l-0.02-0.09"/>
		<path id="Caminho_13_00000098925202108241825520000005553966849532948635_" class="st1" d="M146.12,66.46
			c0.32,1.79,0.44,3.6,0.38,5.41c-0.56,7.23-3.79,14-9.06,18.99c-0.15,0.15-0.32,0.29-0.45,0.45c-1.78,1.92-4.15,3.18-6.74,3.57
			c-3.11,0.79-6.28,1.3-9.49,1.53c-4.03,0.31-8.08,0.37-12.12,0.18c-3.38-0.14-6.77-0.37-10.11-0.78
			c-5.58-0.68-11.13-1.39-16.65-2.35c-5.86-1.03-11.66-2.37-17.48-3.58c-0.03,0-0.05-0.05-0.11-0.12c0.14-0.09,0.28-0.18,0.42-0.26
			c10.37-5.85,20.1-12.77,29.04-20.63c0.48-0.42,0.98-0.81,1.45-1.23c0.21-0.23,0.56-0.27,0.83-0.11c4.54,2,9.27,3.51,14.12,4.53
			c5.02,1.1,10.16,1.53,15.3,1.26c6.42-0.29,12.68-2.12,18.24-5.35c0.79-0.47,1.56-0.98,2.44-1.53"/>
		<path id="Caminho_14_00000074415320543482777000000009486190400331668151_" class="st1" d="M73.76,55.58
			c-2.7,0.66-5.39,1.37-8.11,1.95c-4.92,1.05-9.84,2.09-14.79,2.97c-3.1,0.55-6.24,0.84-9.37,1.22c-3.19,0.36-6.41,0.47-9.63,0.32
			c-3.41,0.04-6.8-0.68-9.9-2.09c-2.09-0.94-3.61-2.81-4.11-5.05c-0.29-1.13,0.01-2.34,0.81-3.2c1.49-1.6,3.36-2.79,5.45-3.45
			c2.48-0.88,5.07-1.43,7.7-1.65c3.36-0.29,6.73-0.27,10.09,0.03c10.59,0.72,20.94,3.48,30.48,8.14c0.46,0.23,0.93,0.44,1.39,0.66
			v0.14"/>
		<path id="Caminho_15_00000048494830439327013880000002178018453177578143_" class="st1" d="M20.13,33.4v-0.64
			c0-4.91,0-9.82,0-14.73c0-0.56,0.16-0.74,0.7-0.7c0.7,0.05,1.39,0.02,2.09,0c0.39,0,0.56,0.11,0.53,0.53
			c-0.03,0.56-0.01,1.12,0.06,1.67c1.05-1.66,2.89-2.65,4.85-2.63c1.96-0.2,3.84,0.84,4.71,2.61c0.35-0.38,0.63-0.7,0.93-1.02
			c2.06-1.78,5-2.12,7.42-0.88c1.22,0.72,1.98,2.03,1.99,3.45c0.11,1.65,0.11,3.31,0.12,4.96c0.02,2.44,0,4.85,0,7.32h-3.53v-0.67
			c0-3.14,0-6.24,0-9.36c-0.01-0.67-0.09-1.34-0.25-1.99c-0.18-0.79-0.81-1.41-1.6-1.57c-1.77-0.63-3.72,0.3-4.35,2.07
			c-0.16,0.45-0.22,0.93-0.18,1.41c-0.04,3.12,0,6.24,0,9.36v0.74h-3.56v-0.7c0-3.24,0-6.47,0-9.71c0-0.46-0.04-0.92-0.14-1.37
			c-0.4-1.74-1.78-2.19-3.41-1.88c-1.64,0.36-2.82,1.8-2.84,3.49c-0.07,2.67-0.05,5.35-0.07,8.02c0,0.58,0,1.16,0,1.74
			c0,0.26-0.05,0.44-0.38,0.44c-1,0-2,0-3.09,0"/>
		<path id="Caminho_16_00000149383362780490561200000009948821971393026737_" class="st1" d="M51.19,19.41
			c0.74-1.27,2.01-2.14,3.46-2.38c3.81-0.95,7.68,1.37,8.63,5.18c0.05,0.19,0.09,0.38,0.12,0.57c0.64,2.57,0.33,5.28-0.86,7.64
			c-1.27,2.48-4.01,3.85-6.76,3.37c-1.71-0.11-3.3-0.96-4.35-2.32c0-0.02-0.07-0.02-0.19-0.05v7.93H47.8c0-0.19-0.03-0.38-0.03-0.56
			c0-6.93,0-13.87,0-20.8c0-0.55,0.17-0.7,0.7-0.67c0.73,0.04,1.46,0.02,2.2,0c0.31,0,0.45,0.11,0.44,0.44c-0.02,0.53,0,1.06,0,1.6
			l0.14,0.05 M55.75,19.62c-1.66-0.11-3.22,0.83-3.89,2.36c-0.98,2.08-0.99,4.5-0.02,6.59c0.64,1.59,2.21,2.61,3.93,2.53
			c1.65,0.07,3.17-0.9,3.79-2.44c0.96-2.05,0.96-4.43,0-6.48c-0.61-1.56-2.12-2.58-3.79-2.56"/>
		<path id="Caminho_17_00000016798055381429036080000009088009210681134221_" class="st1" d="M66.8,22.18c0.01-1.6,0.8-3.09,2.12-4
			c1.1-0.73,2.37-1.15,3.68-1.22c1.59-0.21,3.21-0.06,4.73,0.43c2,0.53,3.34,2.39,3.21,4.45c-0.07,2.5,0,5.01-0.02,7.51
			c-0.02,1.98,0.4,1.77,1.74,1.78c0,0.7,0,1.42,0,2.12c-0.02,0.12-0.11,0.22-0.22,0.26c-0.88,0.16-1.77,0.26-2.67,0.28
			c-1.06-0.02-1.94-0.83-2.06-1.88c-0.93,0.81-2.05,1.38-3.25,1.65c-1.81,0.53-3.75,0.39-5.46-0.41c-1.59-0.76-2.55-2.43-2.4-4.18
			c-0.12-1.82,1.02-3.49,2.77-4.03c1.29-0.36,2.6-0.64,3.93-0.84c0.94-0.18,1.91-0.26,2.84-0.47c0.99-0.22,1.45-0.74,1.5-1.51
			c0.17-0.94-0.39-1.85-1.3-2.13c-1.27-0.48-2.68-0.48-3.95,0c-0.84,0.28-1.47,0.99-1.65,1.86c-0.03,0.14-0.22,0.35-0.35,0.35
			c-1.05,0.03-2.07,0-3.19,0 M76.98,25.59c-1.15,0.19-2.29,0.35-3.43,0.59c-0.89,0.15-1.75,0.38-2.59,0.7
			c-0.88,0.39-1.39,1.32-1.24,2.27c0.09,0.83,0.7,1.52,1.52,1.69c1.45,0.53,3.06,0.39,4.38-0.39c0.7-0.32,1.2-0.96,1.33-1.72
			C77.01,27.68,77.02,26.63,76.98,25.59"/>
		<path id="Caminho_18_00000071522461850706031440000004397221945296937092_" class="st1" d="M12.39,33.4v-0.64
			c0-4.91,0-9.82,0-14.74c0-0.56,0.16-0.74,0.7-0.7c0.73,0.05,1.46,0.03,2.2,0c0.41,0,0.59,0.12,0.59,0.55c0,5.01,0,10.02,0,15.02
			c0,0.35-0.1,0.51-0.5,0.51c-0.96-0.02-1.92,0-2.98,0"/>
		<path id="Caminho_19_00000000210631977092722840000017957579830794094527_" class="st1" d="M12.4,14.45v-3.3c1.07,0,2.14,0,3.2,0
			c0.09,0,0.24,0.23,0.24,0.35c0.02,0.84,0.02,1.69,0,2.53c0,0.13-0.18,0.37-0.29,0.37c-1.05,0.03-2.06,0-3.14,0"/>
		<path id="Caminho_11_00000007396009873168421470000011720516506509847994_" class="st2" d="M-560.67,226.96
			c0.5,0.63,0.92,1.22,1.39,1.74c1.96,1.94,4.44,3.26,7.14,3.81c3.47,0.82,7.03,1.17,10.59,1.05c4.38-0.09,8.76-0.47,13.09-1.14
			c9.68-1.5,19.27-3.53,28.72-6.09c4.96-1.31,9.99-2.3,15.08-2.96c4.06-0.5,8.13-0.96,12.2-1.39c2.85-0.29,5.71-0.47,8.57-0.7
			c0.12,0,0.23,0,0.52,0l-2.03,0.97c-7.4,3.61-14.27,8.21-20.43,13.67c-10.12,8.86-21.27,16.47-33.2,22.66
			c-6.4,3.41-13.14,6.13-20.12,8.12c-4.47,1.33-9.11,1.97-13.77,1.9c-4.24,0-8.38-1.29-11.85-3.72c-0.85-0.54-1.34-1.5-1.28-2.5
			c0.13-2.57,0.14-5.16,0.45-7.71c0.47-3.93,1.05-7.84,1.74-11.74c0.74-4.25,1.64-8.48,2.48-12.72c0.21-1.07,0.46-2.13,0.7-3.25"/>
		<path id="Caminho_12_00000116218906980391215520000007232046394445436073_" class="st2" d="M-482.91,220.11
			c1.91-0.9,3.82-1.81,5.72-2.71c11.27-5.31,22.54-10.61,33.81-15.91c4.01-1.89,8.31-3.07,12.72-3.49
			c5.58-0.76,11.26,0.5,15.99,3.56c3.55,2.5,6.4,5.86,8.3,9.76c1.41,2.75,2.14,5.8,2.11,8.89c0.12,9.77-3.8,19.16-10.83,25.95
			c-3.12,3.05-6.62,5.67-10.42,7.8c-3.03,1.78-6.16,3.4-9.24,5.09c-0.1,0.05-0.21,0.09-0.48,0.2c0.57-0.73,1.05-1.31,1.5-1.91
			c2.96-3.65,5-7.95,5.97-12.55c1.3-5.32,0.63-10.94-1.89-15.8c-2.37-4.27-6.23-7.52-10.85-9.12c-2.78-1.01-5.69-1.64-8.65-1.87
			c-4.01-0.24-8.04-0.21-12.05,0.12c-2.02,0.1-4.03,0.21-6.05,0.37c-2.3,0.18-4.6,0.39-6.89,0.65c-2.84,0.32-5.68,0.71-8.52,1.08
			c-0.08,0-0.15,0-0.23,0l-0.02-0.09"/>
		<path id="Caminho_13_00000108272813906737707380000007478486492062146492_" class="st2" d="M-430.47,234.89
			c0.32,1.79,0.44,3.6,0.38,5.41c-0.56,7.23-3.79,14-9.06,18.99c-0.15,0.15-0.32,0.29-0.45,0.45c-1.78,1.92-4.15,3.18-6.74,3.57
			c-3.11,0.79-6.28,1.3-9.49,1.53c-4.03,0.31-8.08,0.37-12.12,0.18c-3.38-0.14-6.77-0.37-10.11-0.78
			c-5.58-0.68-11.13-1.39-16.65-2.35c-5.86-1.03-11.66-2.37-17.48-3.58c-0.03,0-0.05-0.05-0.11-0.12c0.14-0.09,0.28-0.18,0.42-0.26
			c10.37-5.85,20.1-12.77,29.04-20.63c0.48-0.42,0.98-0.81,1.45-1.23c0.21-0.23,0.56-0.27,0.83-0.11c4.54,2,9.27,3.51,14.12,4.53
			c5.02,1.1,10.16,1.53,15.3,1.26c6.42-0.29,12.68-2.12,18.24-5.35c0.79-0.47,1.56-0.98,2.44-1.53"/>
		<path id="Caminho_14_00000177483257205583105920000013855410802348183990_" class="st2" d="M-502.83,224.02
			c-2.7,0.66-5.39,1.37-8.11,1.95c-4.92,1.05-9.84,2.09-14.79,2.97c-3.1,0.55-6.24,0.84-9.37,1.22c-3.19,0.36-6.41,0.47-9.63,0.32
			c-3.41,0.04-6.8-0.68-9.9-2.09c-2.09-0.94-3.61-2.81-4.11-5.05c-0.29-1.13,0.01-2.34,0.81-3.2c1.49-1.6,3.36-2.79,5.45-3.45
			c2.48-0.88,5.07-1.43,7.7-1.65c3.36-0.29,6.73-0.27,10.09,0.03c10.59,0.72,20.94,3.48,30.48,8.14c0.46,0.23,0.93,0.44,1.39,0.66
			v0.14"/>
	</g>
</g>
</svg>
